<?xml version="1.0" encoding="UTF-8" standalone="no"?>
<svg
   height="16px"
   viewBox="0 0 16 16"
   width="16px"
   version="1.1"
   id="svg1"
   sodipodi:docname="flatpak-symbolic.svg"
   inkscape:version="1.4 (e7c3feb100, 2024-10-09)"
   xmlns:inkscape="http://www.inkscape.org/namespaces/inkscape"
   xmlns:sodipodi="http://sodipodi.sourceforge.net/DTD/sodipodi-0.dtd"
   xmlns="http://www.w3.org/2000/svg"
   xmlns:svg="http://www.w3.org/2000/svg">
  <defs
     id="defs1" />
  <sodipodi:namedview
     id="namedview1"
     pagecolor="#ffffff"
     bordercolor="#000000"
     borderopacity="0.25"
     inkscape:showpageshadow="2"
     inkscape:pageopacity="0.0"
     inkscape:pagecheckerboard="0"
     inkscape:deskcolor="#d1d1d1"
     inkscape:zoom="50"
     inkscape:cx="8"
     inkscape:cy="8"
     inkscape:window-width="1920"
     inkscape:window-height="1011"
     inkscape:window-x="0"
     inkscape:window-y="0"
     inkscape:window-maximized="1"
     inkscape:current-layer="svg1" />
  <path
     d="m 7.804688 0.0195312 c -0.128907 0.0273438 -0.25 0.0742188 -0.359376 0.1484378 l -6 4 c -0.277343 0.183593 -0.445312 0.496093 -0.445312 0.832031 v 6 c 0 0.335938 0.167969 0.648438 0.445312 0.832031 l 6 4 c 0.335938 0.222657 0.773438 0.222657 1.109376 0 l 6 -4 c 0.277343 -0.183593 0.445312 -0.496093 0.445312 -0.832031 v -6 c 0 -0.335938 -0.167969 -0.648438 -0.445312 -0.832031 l -6 -4 c -0.21875 -0.1484378 -0.488282 -0.199219 -0.75 -0.1484378 z m 0.195312 2.1796878 v 6.800781 l 5 -3.332031 v 4.796875 l -5 3.335937 v -4.800781 l -5 -3.332031 v -0.132813 z m 0 0"
     fill="#222222"
     id="path1"
     style="fill:#ffc0cb;fill-opacity:1" />
</svg>
