<?xml version="1.0" encoding="UTF-8" standalone="no"?>
<svg
   height="16px"
   viewBox="0 0 16 16"
   width="16px"
   version="1.1"
   id="svg2"
   sodipodi:docname="library-music-symbolic.svg"
   inkscape:version="1.4 (e7c3feb100, 2024-10-09)"
   xmlns:inkscape="http://www.inkscape.org/namespaces/inkscape"
   xmlns:sodipodi="http://sodipodi.sourceforge.net/DTD/sodipodi-0.dtd"
   xmlns="http://www.w3.org/2000/svg"
   xmlns:svg="http://www.w3.org/2000/svg">
  <defs
     id="defs2" />
  <sodipodi:namedview
     id="namedview2"
     pagecolor="#ffffff"
     bordercolor="#000000"
     borderopacity="0.25"
     inkscape:showpageshadow="2"
     inkscape:pageopacity="0.0"
     inkscape:pagecheckerboard="0"
     inkscape:deskcolor="#d1d1d1"
     showgrid="false"
     inkscape:zoom="50"
     inkscape:cx="8"
     inkscape:cy="8"
     inkscape:window-width="1920"
     inkscape:window-height="1011"
     inkscape:window-x="0"
     inkscape:window-y="0"
     inkscape:window-maximized="1"
     inkscape:current-layer="svg2" />
  <g
     fill="#222222"
     id="g2"
     style="fill:#deddda;fill-opacity:1">
    <path
       d="m 5 0 c -1.09375 0 -2 0.910156 -2 2 v 9 c 0 1.089844 0.90625 2 2 2 h 9 c 1.089844 0 2 -0.910156 2 -2 v -9 c 0 -1.089844 -0.910156 -2 -2 -2 z m 8 2 v 2 h -2 v 5 c 0 1.105469 -0.898438 2 -2 2 c -1.105469 0 -2 -0.894531 -2 -2 s 0.894531 -2 2 -2 c 0.351562 0 0.695312 0.09375 1 0.269531 v -5.269531 z m 0 0"
       id="path1"
       style="fill:#deddda;fill-opacity:1" />
    <path
       d="m 2 3 c -1.09375 0 -2 0.910156 -2 2 v 9 c 0 1.089844 0.90625 2 2 2 h 9 c 1.089844 0 2 -0.910156 2 -2 h -11 z m 0 0"
       id="path2"
       style="fill:#deddda;fill-opacity:1" />
  </g>
</svg>
