<?xml version="1.0" encoding="UTF-8" standalone="no"?>
<svg
   height="16px"
   viewBox="0 0 16 16"
   width="16px"
   version="1.1"
   id="svg4"
   sodipodi:docname="library-symbolic.svg"
   inkscape:version="1.4 (e7c3feb100, 2024-10-09)"
   xmlns:inkscape="http://www.inkscape.org/namespaces/inkscape"
   xmlns:sodipodi="http://sodipodi.sourceforge.net/DTD/sodipodi-0.dtd"
   xmlns="http://www.w3.org/2000/svg"
   xmlns:svg="http://www.w3.org/2000/svg">
  <defs
     id="defs4" />
  <sodipodi:namedview
     id="namedview4"
     pagecolor="#ffffff"
     bordercolor="#000000"
     borderopacity="0.25"
     inkscape:showpageshadow="2"
     inkscape:pageopacity="0.0"
     inkscape:pagecheckerboard="0"
     inkscape:deskcolor="#d1d1d1"
     inkscape:zoom="50"
     inkscape:cx="8"
     inkscape:cy="11.2"
     inkscape:window-width="1920"
     inkscape:window-height="1011"
     inkscape:window-x="0"
     inkscape:window-y="0"
     inkscape:window-maximized="1"
     inkscape:current-layer="svg4" />
  <g
     fill="#222222"
     id="g4"
     style="fill:#ffffff;fill-opacity:1">
    <path
       d="m 1.5 2 h 2 c 0.277344 0 0.5 0.222656 0.5 0.5 v 12 c 0 0.277344 -0.222656 0.5 -0.5 0.5 h -2 c -0.277344 0 -0.5 -0.222656 -0.5 -0.5 v -12 c 0 -0.277344 0.222656 -0.5 0.5 -0.5 z m 0 0"
       id="path1"
       style="fill:#ffffff;fill-opacity:1" />
    <path
       d="m 5.5 4 h 1 c 0.277344 0 0.5 0.222656 0.5 0.5 v 10 c 0 0.277344 -0.222656 0.5 -0.5 0.5 h -1 c -0.277344 0 -0.5 -0.222656 -0.5 -0.5 v -10 c 0 -0.277344 0.222656 -0.5 0.5 -0.5 z m 0 0"
       id="path2"
       style="fill:#ffffff;fill-opacity:1" />
    <path
       d="m 8.5 3 h 1 c 0.277344 0 0.5 0.222656 0.5 0.5 v 11 c 0 0.277344 -0.222656 0.5 -0.5 0.5 h -1 c -0.277344 0 -0.5 -0.222656 -0.5 -0.5 v -11 c 0 -0.277344 0.222656 -0.5 0.5 -0.5 z m 0 0"
       id="path3"
       style="fill:#ffffff;fill-opacity:1" />
    <path
       d="m 10.707031 1.460938 l 0.964844 -0.261719 c 0.265625 -0.070313 0.539063 0.089843 0.613281 0.355469 l 3.363282 12.558593 c 0.070312 0.265625 -0.085938 0.539063 -0.351563 0.609375 l -0.96875 0.261719 c -0.265625 0.070313 -0.539063 -0.089844 -0.613281 -0.355469 l -3.363282 -12.554687 c -0.070312 -0.269531 0.085938 -0.542969 0.355469 -0.613281 z m 0 0"
       id="path4"
       style="fill:#ffffff;fill-opacity:1" />
  </g>
</svg>
