<?xml version="1.0" encoding="UTF-8" standalone="no"?>
<svg
   height="16px"
   viewBox="0 0 16 16"
   width="16px"
   version="1.1"
   id="svg1"
   sodipodi:docname="people-symbolic.svg"
   inkscape:version="1.4 (e7c3feb100, 2024-10-09)"
   xmlns:inkscape="http://www.inkscape.org/namespaces/inkscape"
   xmlns:sodipodi="http://sodipodi.sourceforge.net/DTD/sodipodi-0.dtd"
   xmlns="http://www.w3.org/2000/svg"
   xmlns:svg="http://www.w3.org/2000/svg">
  <defs
     id="defs1" />
  <sodipodi:namedview
     id="namedview1"
     pagecolor="#ffffff"
     bordercolor="#000000"
     borderopacity="0.25"
     inkscape:showpageshadow="2"
     inkscape:pageopacity="0.0"
     inkscape:pagecheckerboard="0"
     inkscape:deskcolor="#d1d1d1"
     inkscape:zoom="50"
     inkscape:cx="8"
     inkscape:cy="8"
     inkscape:window-width="1920"
     inkscape:window-height="1011"
     inkscape:window-x="0"
     inkscape:window-y="0"
     inkscape:window-maximized="1"
     inkscape:current-layer="svg1" />
  <path
     d="m 5 1 c -1.378906 0 -2.5 1.121094 -2.5 2.5 c 0 1.382812 1.121094 2.5 2.5 2.5 c 1.382812 0 2.5 -1.117188 2.5 -2.5 c 0 -1.378906 -1.117188 -2.5 -2.5 -2.5 z m 6 3 c -1.378906 0 -2.5 1.121094 -2.5 2.5 c 0 1.382812 1.121094 2.5 2.5 2.5 c 1.382812 0 2.5 -1.117188 2.5 -2.5 c 0 -1.378906 -1.117188 -2.5 -2.5 -2.5 z m -8 3 c -1.660156 0 -3 1.339844 -3 3 v 2 c 0 0.554688 0.445312 1 1 1 h 4.078125 c 0 -2.042969 1.582031 -3.734375 3.578125 -3.90625 c -0.589844 -0.535156 -0.980469 -1.257812 -1.109375 -2.042969 c -0.175781 -0.03125 -0.359375 -0.050781 -0.546875 -0.050781 z m 6 3 c -1.660156 0 -3 1.339844 -3 3 v 2 c 0 0.554688 0.445312 1 1 1 h 8 c 0.554688 0 1 -0.445312 1 -1 v -2 c 0 -1.660156 -1.335938 -3 -3 -3 z m 0 0"
     fill="#222222"
     id="path1"
     style="fill:#ffffff;fill-opacity:1" />
</svg>
